<svg xmlns="http://www.w3.org/2000/svg" width="1100" height="620" viewBox="0 0 1100 620" role="img" aria-label="Portfolio preview mockup">
  <defs>
    <linearGradient id="screen" x1="0" y1="0" x2="0" y2="1">
      <stop offset="0%" stop-color="#f0f4fa"/>
      <stop offset="100%" stop-color="#e4ebf5"/>
    </linearGradient>
    <filter id="shadow" x="-10%" y="-10%" width="120%" height="120%">
      <feDropShadow dx="0" dy="18" stdDeviation="24" flood-color="#0a1628" flood-opacity="0.25"/>
    </filter>
  </defs>
  <rect x="70" y="30" width="960" height="560" rx="18" fill="#1a2744" filter="url(#shadow)"/>
  <rect x="90" y="50" width="920" height="36" rx="8" fill="#112040"/>
  <circle cx="112" cy="68" r="7" fill="#ff6b2b"/>
  <circle cx="134" cy="68" r="7" fill="#ffb27a"/>
  <circle cx="156" cy="68" r="7" fill="#4a5a7a"/>
  <rect x="430" y="60" width="240" height="16" rx="8" fill="#243556"/>
  <rect x="90" y="96" width="920" height="474" rx="0" fill="url(#screen)"/>
  <rect x="90" y="96" width="920" height="58" fill="#ffffff"/>
  <text x="118" y="132" fill="#0a1628" font-family="Georgia, serif" font-size="22" font-weight="700">Portfolio<tspan fill="#ff6b2b">.</tspan></text>
  <circle cx="500" cy="125" r="5" fill="#22c55e"/>
  <text x="514" y="130" fill="#4a5a7a" font-family="Arial, sans-serif" font-size="11">Open to Work</text>
  <text x="720" y="130" fill="#4a5a7a" font-family="Arial, sans-serif" font-size="11">About · Clients · Experience · Skills</text>
  <rect x="860" y="110" width="88" height="28" rx="14" fill="#ff6b2b"/>
  <text x="904" y="129" text-anchor="middle" fill="#fff" font-family="Arial, sans-serif" font-size="11" font-weight="700">Hire Me</text>
  <rect x="118" y="180" width="420" height="300" rx="16" fill="#ffffff" stroke="#d0daea"/>
  <text x="140" y="218" fill="#ff6b2b" font-family="Arial, sans-serif" font-size="11" letter-spacing="2">AVAILABLE FOR WORK</text>
  <text x="140" y="268" fill="#0a1628" font-family="Georgia, serif" font-size="34" font-weight="700">SEO Executive</text>
  <text x="140" y="304" fill="#4a5a7a" font-family="Arial, sans-serif" font-size="14">Data-driven growth · Technical SEO · Content</text>
  <rect x="140" y="330" width="120" height="34" rx="17" fill="#0a1628"/>
  <text x="200" y="352" text-anchor="middle" fill="#fff" font-family="Arial, sans-serif" font-size="12">Contact</text>
  <rect x="272" y="330" width="120" height="34" rx="17" fill="none" stroke="#0a1628"/>
  <text x="332" y="352" text-anchor="middle" fill="#0a1628" font-family="Arial, sans-serif" font-size="12">Resume</text>
  <rect x="580" y="180" width="390" height="140" rx="16" fill="#0a1628"/>
  <text x="610" y="220" fill="#ff8c55" font-family="Arial, sans-serif" font-size="11" letter-spacing="2">EXPERIENCE</text>
  <rect x="610" y="236" width="330" height="10" rx="5" fill="#243556"/>
  <rect x="610" y="258" width="280" height="10" rx="5" fill="#243556"/>
  <rect x="610" y="280" width="300" height="10" rx="5" fill="#243556"/>
  <rect x="580" y="340" width="185" height="140" rx="16" fill="#ffffff" stroke="#d0daea"/>
  <text x="600" y="372" fill="#ff6b2b" font-family="Arial, sans-serif" font-size="11" letter-spacing="1">SKILLS</text>
  <rect x="600" y="386" width="70" height="22" rx="11" fill="#fff0e8" stroke="#ffd4bf"/>
  <rect x="678" y="386" width="70" height="22" rx="11" fill="#fff0e8" stroke="#ffd4bf"/>
  <rect x="600" y="418" width="90" height="22" rx="11" fill="#fff0e8" stroke="#ffd4bf"/>
  <rect x="785" y="340" width="185" height="140" rx="16" fill="#ffffff" stroke="#d0daea"/>
  <text x="805" y="372" fill="#ff6b2b" font-family="Arial, sans-serif" font-size="11" letter-spacing="1">CLIENTS</text>
  <rect x="805" y="390" width="145" height="12" rx="6" fill="#e8edf5"/>
  <rect x="805" y="412" width="120" height="12" rx="6" fill="#e8edf5"/>
  <rect x="805" y="434" width="135" height="12" rx="6" fill="#e8edf5"/>
  <rect x="118" y="500" width="852" height="52" rx="12" fill="#ffffff" stroke="#d0daea"/>
  <text x="140" y="532" fill="#0a1628" font-family="Georgia, serif" font-size="16">Built for recruiters, clients &amp; collaborators</text>
</svg>
